<?xml version="1.0" encoding="UTF-8" standalone="no"?>
<!-- Generator: Adobe Illustrator 19.0.0, SVG Export Plug-In . SVG Version: 6.00 Build 0)  -->

<svg
   version="1.1"
   id="Capa_1"
   x="0px"
   y="0px"
   viewBox="0 0 489.9 489.9"
   style="enable-background:new 0 0 489.9 489.9;"
   xml:space="preserve"
   sodipodi:docname="mute.svg"
   inkscape:version="1.2 (dc2aedaf03, 2022-05-15)"
   xmlns:inkscape="http://www.inkscape.org/namespaces/inkscape"
   xmlns:sodipodi="http://sodipodi.sourceforge.net/DTD/sodipodi-0.dtd"
   xmlns="http://www.w3.org/2000/svg"
   xmlns:svg="http://www.w3.org/2000/svg"><defs
   id="defs142" /><sodipodi:namedview
   id="namedview140"
   pagecolor="#ffffff"
   bordercolor="#000000"
   borderopacity="0.25"
   inkscape:showpageshadow="2"
   inkscape:pageopacity="0.0"
   inkscape:pagecheckerboard="0"
   inkscape:deskcolor="#d1d1d1"
   showgrid="false"
   inkscape:zoom="1.6411513"
   inkscape:cx="244.95"
   inkscape:cy="245.25466"
   inkscape:window-width="1920"
   inkscape:window-height="991"
   inkscape:window-x="-9"
   inkscape:window-y="-9"
   inkscape:window-maximized="1"
   inkscape:current-layer="Capa_1" />
<g
   id="g107"
   style="fill:#ffffff">
	<g
   id="g105"
   style="fill:#ffffff">
		<path
   d="M268.9,70.25c-4.9,0-9.8,1.3-14.2,3.8c-0.3,0.2-0.6,0.3-0.8,0.5l-100.1,69.2H73.3c-40.4,0-73.3,32.9-73.3,73.3v55.6    c0,40.4,32.9,73.3,73.3,73.3h84.5l95.9,69.2c0.3,0.2,0.7,0.5,1,0.7c4.3,2.5,9.2,3.8,14.2,3.8l0,0c7.4,0,14.4-2.8,19.7-7.9    c5.6-5.4,8.7-12.6,8.7-20.4V98.65C297.3,82.95,284.6,70.25,268.9,70.25z M272.8,391.25c0,1.1-0.4,2-1.1,2.8    c-0.7,0.7-1.8,1.1-2.7,1.1c-0.5,0-1-0.1-1.5-0.3l-98.4-71.1c-2.1-1.5-4.6-2.3-7.2-2.3H73.3c-26.9,0-48.8-21.9-48.8-48.8v-55.6    c0-26.9,21.9-48.8,48.8-48.8h84.3c2.5,0,4.9-0.8,7-2.2l102.7-71c0.5-0.3,1.1-0.4,1.6-0.4c1.6,0,3.9,1.2,3.9,3.9V391.25z"
   id="path101"
   style="fill:#ffffff" />
		<path
   d="M486.1,171.35c-4.8-4.8-12.5-4.8-17.3,0l-56.3,56.3l-56.3-56.3c-4.8-4.8-12.5-4.8-17.3,0c-4.8,4.8-4.8,12.5,0,17.3    l56.3,56.3l-56.3,56.3c-4.8,4.8-4.8,12.5,0,17.3c2.4,2.4,5.5,3.6,8.7,3.6s6.3-1.2,8.7-3.6l56.3-56.3l56.3,56.3    c2.4,2.4,5.5,3.6,8.7,3.6s6.3-1.2,8.7-3.6c4.8-4.8,4.8-12.5,0-17.3l-56.5-56.3l56.3-56.3C490.8,183.85,490.8,176.15,486.1,171.35z    "
   id="path103"
   style="fill:#ffffff" />
	</g>
</g>
<g
   id="g109">
</g>
<g
   id="g111">
</g>
<g
   id="g113">
</g>
<g
   id="g115">
</g>
<g
   id="g117">
</g>
<g
   id="g119">
</g>
<g
   id="g121">
</g>
<g
   id="g123">
</g>
<g
   id="g125">
</g>
<g
   id="g127">
</g>
<g
   id="g129">
</g>
<g
   id="g131">
</g>
<g
   id="g133">
</g>
<g
   id="g135">
</g>
<g
   id="g137">
</g>
</svg>
